<svg width="46" height="53" viewBox="0 0 46 53" fill="none" xmlns="http://www.w3.org/2000/svg">
<g clip-path="url(#clip0_18_93)">
<path d="M45.0346 35.467L28.6061 52.0295C27.9695 52.6817 27.1275 53.0026 26.2855 53.0026C25.4436 53.0026 24.6037 52.6791 23.963 52.0321C22.6795 50.7382 22.6795 48.642 23.963 47.348L34.7873 36.4401H3.28555C1.47122 36.4401 0 34.9598 0 33.1276C0 31.2954 1.47122 29.8151 3.28555 29.8151H34.7873L23.965 18.9045C22.6815 17.6106 22.6815 15.5144 23.965 14.2205C25.2485 12.9265 27.3277 12.9265 28.6112 14.2205L45.0398 30.783C46.3181 32.0821 46.3181 34.1731 45.0346 35.467Z" fill="white" fill-opacity="0.71"/>
</g>
<defs>
<clipPath id="clip0_18_93">
<rect width="46" height="53" fill="white"/>
</clipPath>
</defs>
</svg>
