<svg width="46" height="53" viewBox="0 0 46 53" fill="none" xmlns="http://www.w3.org/2000/svg">
<path d="M45.9076 31.5C45.9076 33.3322 44.5317 34.8125 42.7143 34.8125H11.2227L22.0451 45.723C23.3285 47.017 23.3285 49.1132 22.0451 50.4071C21.3982 51.0541 20.5562 51.375 19.7143 51.375C18.8723 51.375 18.0324 51.0515 17.3917 50.4045L0.9631 33.842C-0.320382 32.5481 -0.320382 30.4519 0.9631 29.158L17.3917 12.5955C18.6752 11.3015 20.7544 11.3015 22.0379 12.5955C23.3214 13.8894 23.3214 15.9856 22.0379 17.2795L11.2227 28.1875H42.7143C44.5317 28.1875 45.9076 29.6678 45.9076 31.5Z" fill="white" fill-opacity="0.71"/>
</svg>
